<?xml version="1.0" encoding="UTF-8" standalone="no"?>
<svg
   width="130.18565"
   zoomAndPan="magnify"
   viewBox="0 0 97.63924 119.47873"
   height="159.30498"
   preserveAspectRatio="xMidYMid"
   version="1.0"
   id="svg2015"
   sodipodi:docname="third last (2).svg"
   xmlns:inkscape="http://www.inkscape.org/namespaces/inkscape"
   xmlns:sodipodi="http://sodipodi.sourceforge.net/DTD/sodipodi-0.dtd"
   xmlns="http://www.w3.org/2000/svg"
   xmlns:svg="http://www.w3.org/2000/svg">
  <sodipodi:namedview
     id="namedview2017"
     pagecolor="#505050"
     bordercolor="#eeeeee"
     borderopacity="1"
     inkscape:showpageshadow="0"
     inkscape:pageopacity="0"
     inkscape:pagecheckerboard="0"
     inkscape:deskcolor="#505050"
     showgrid="false" />
  <defs
     id="defs1901">
    <clipPath
       id="id1">
      <path
         d="M 138.01953,167 H 227 v 91 h -88.98047 z m 0,0"
         clip-rule="nonzero"
         id="path1895" />
    </clipPath>
  </defs>
  <path
     fill="#7ed957"
     d="m 96.984365,51.386562 c -2.83594,0 -16.66407,3.80078 -18.4375,6.53906 l 3.63281,-0.35156 c 0,0 11.08203,-3.53515 13.91797,-3.53515 2.83984,0 0.88672,-2.65235 0.88672,-2.65235 z m 0,0"
     fill-opacity="1"
     fill-rule="nonzero"
     id="path1903" />
  <path
     fill="#03989e"
     d="m 68.035145,11.452972 c -2.83985,2.82812 -8.51172,19.80859 -8.51172,28.29687 0,8.48828 5.67187,16.97657 -5.67188,22.63672 -11.34765,5.66016 -14.1875,-2.82812 -14.1875,-14.14844 0,-11.32031 2.83985,-22.63671 5.67578,-28.29687 2.83594,-5.66016 5.67188,0 5.67188,0 0,0 2.83984,-11.31641 5.67578,-11.31641 2.83594,0 2.83594,5.65625 2.83594,5.65625 0,0 5.67187,-5.65625 8.51172,-5.65625 2.83593,0 0,2.82813 0,2.82813 z m 0,0"
     fill-opacity="1"
     fill-rule="nonzero"
     id="path1905" />
  <g
     clip-path="url(#id1)"
     id="g1909"
     transform="translate(-138.01954,-157.30875)">
    <path
       fill="#59abdb"
       d="m 208.89062,205.54687 c -8.51171,0 -11.34765,11.32032 -17.01953,11.32032 -5.67578,0 -2.83984,-8.49219 -8.51172,-8.49219 -5.67187,0 -28.36718,-14.14844 -28.36718,-31.125 0,-16.97656 -8.50782,-8.48828 -8.50782,-2.82813 -2.83984,0 -5.67578,4.48829 -5.67578,8.48829 0,2.82812 0,5.66015 2.83594,8.48828 -2.83594,0 -5.67187,5.66015 -2.83594,8.48828 -2.83593,8.48828 2.83594,16.98047 8.51172,19.80859 0,2.82813 5.67188,8.48828 11.34766,5.66016 0,0 2.83594,8.48828 8.50781,5.65625 0,0 -8.65625,4.76562 -11.34766,5.66015 -8.50781,2.83204 -19.85546,2.83204 -19.85546,2.83204 0,0 0,2.82812 5.67187,5.65625 0,0 -2.83594,2.83203 0,5.66015 2.83984,2.82813 5.67578,2.82813 5.67578,2.82813 0,0 -2.83594,5.66015 5.67188,2.83203 8.51172,-2.83203 17.01953,-11.32031 17.01953,-11.32031 0,0 14.18359,2.83203 25.53125,-2.82813 11.34765,-5.66016 17.01953,-16.97656 17.01953,-22.63672 0,-5.66015 8.51172,-2.82812 11.34766,-2.82812 2.83593,0 -5.67188,-5.66016 -8.51172,-5.66016 0,0 0,-5.66016 -8.50782,-5.66016 z m 0,0"
       fill-opacity="1"
       fill-rule="nonzero"
       id="path1907" />
  </g>
  <path
     fill="#7ed957"
     d="m 79.523425,56.781092 c 0,0 -15.42578,7.42578 -22.51953,18.83203 -5.39063,8.67188 -7.89063,24.496098 -7.89063,24.496098 0,0 -0.12109,1.59375 2.57422,-6.457028 2.83594,-8.48828 6.28906,-17.79297 12.23047,-23.16797 9.48437,-8.57813 13.47266,-9.90235 17.19531,-12.02735 0.94141,-0.53125 -0.61719,-1.9414 -1.58984,-1.67578 z m 0,0"
     fill-opacity="1"
     fill-rule="nonzero"
     id="path1911" />
  <path
     fill="#7ed957"
     d="m 53.289045,86.550622 c 0,0 -5.78125,0.29297 -8.8125,6.05469 -3.03125,5.75781 0.14844,13.902348 0.14844,13.902348 0,0 7.80078,-3.58594 9.82031,-8.339848 2.01953,-4.7539 -1.15625,-11.61719 -1.15625,-11.61719 z m 6.05078,-13.51953 c 0,0 -3.61328,4.06641 -10.09375,4.82422 -6.48046,0.76172 -11.6914,-3.90234 -11.6914,-3.90234 0,0 6.08203,-5.57422 11.25781,-5.75391 5.17188,-0.18359 10.52734,4.83203 10.52734,4.83203 z m 11.48047,-8.90625 c 0,0 5.71485,0.92969 8.08203,6.99219 2.3711,6.06641 -1.20312,11.34766 -1.20312,11.34766 0,0 -7.1875,-2.39844 -8.66797,-7.34766 -1.47656,-4.94531 1.78906,-10.99219 1.78906,-10.99219 z m 0,0"
     fill-opacity="1"
     fill-rule="nonzero"
     id="path1913" />
</svg>
