<?xml version="1.0" encoding="UTF-8" standalone="no"?>
<svg
   width="80.112732"
   zoomAndPan="magnify"
   viewBox="0 0 60.084549 55.124999"
   height="73.5"
   preserveAspectRatio="xMidYMid"
   version="1.0"
   id="svg15390"
   sodipodi:docname="third last (1).svg"
   inkscape:version="1.2 (dc2aedaf03, 2022-05-15)"
   xmlns:inkscape="http://www.inkscape.org/namespaces/inkscape"
   xmlns:sodipodi="http://sodipodi.sourceforge.net/DTD/sodipodi-0.dtd"
   xmlns="http://www.w3.org/2000/svg"
   xmlns:svg="http://www.w3.org/2000/svg">
  <sodipodi:namedview
     id="namedview15392"
     pagecolor="#505050"
     bordercolor="#eeeeee"
     borderopacity="1"
     inkscape:showpageshadow="0"
     inkscape:pageopacity="0"
     inkscape:pagecheckerboard="0"
     inkscape:deskcolor="#505050"
     showgrid="false"
     inkscape:zoom="2.9698485"
     inkscape:cx="201.18872"
     inkscape:cy="218.52967"
     inkscape:window-width="1366"
     inkscape:window-height="705"
     inkscape:window-x="-8"
     inkscape:window-y="-8"
     inkscape:window-maximized="1"
     inkscape:current-layer="svg15390" />
  <defs
     id="defs15276" />
  <path
     fill="#7ed957"
     d="m 59.429678,-1.557917e-7 c -2.83594,0 -16.66406,3.8046899557917 -18.4375,6.5429699557917 l 3.63281,-0.35156 c 0,0 11.08203,-3.53516 13.91797,-3.53516 2.83984,0 0.88672,-2.6562499557917 0.88672,-2.6562499557917 z m 0,0"
     fill-opacity="1"
     fill-rule="nonzero"
     id="path15278" />
  <path
     fill="#7ed957"
     d="m 41.968728,5.3984298 c 0,0 -15.42578,7.4257902 -22.51953,18.8320402 -5.39062,8.67187 -7.89062,24.49609 -7.89062,24.49609 0,0 -0.1211,1.59375 2.57422,-6.45703 2.83593,-8.48828 6.28906,-17.79297 12.23046,-23.16797 9.48438,-8.57813 13.47266,-9.9023402 17.19532,-12.0273402 0.9414,-0.53516 -0.61719,-1.94141 -1.58985,-1.67579 z m 0,0"
     fill-opacity="1"
     fill-rule="nonzero"
     id="path15286" />
  <path
     fill="#7ed957"
     d="m 15.734358,35.16797 c 0,0 -5.7812497,0.29296 -8.8124997,6.05078 -3.03125,5.76172 0.14844,13.90625 0.14844,13.90625 0,0 7.8007797,-3.58594 9.8203097,-8.33985 2.01953,-4.7539 -1.15625,-11.61718 -1.15625,-11.61718 z m 6.05078,-13.51954 c 0,0 -3.61328,4.06641 -10.09375,4.82422 C 5.2109183,27.23437 -1.1667799e-5,22.57031 -1.1667799e-5,22.57031 c 0,0 6.082029967799,-5.57422 11.257809667799,-5.75391 5.17187,-0.18359 10.52734,4.83203 10.52734,4.83203 z m 11.48047,-8.90625 c 0,0 5.71485,0.92969 8.08203,6.99219 2.3711,6.06641 -1.20312,11.34766 -1.20312,11.34766 0,0 -7.1875,-2.39844 -8.66797,-7.34766 -1.47656,-4.94531 1.78906,-10.99219 1.78906,-10.99219 z m 0,0"
     fill-opacity="1"
     fill-rule="nonzero"
     id="path15288" />
</svg>
